<!-- Generator: Adobe Illustrator 18.1.1, SVG Export Plug-In  -->
<svg version="1.1" class="logo-art"
	 xmlns="http://www.w3.org/2000/svg" xmlns:xlink="http://www.w3.org/1999/xlink" xmlns:a="http://ns.adobe.com/AdobeSVGViewerExtensions/3.0/"
	 x="0px" y="0px" width="63.6px" height="46.4px" viewBox="0 0 63.6 46.4" enable-background="new 0 0 63.6 46.4"
	 xml:space="preserve">
<defs>
</defs>
<path fill-rule="evenodd" clip-rule="evenodd" fill="#886137" d="M1.1,1.1v44.2h61.4V1.1H1.1L1.1,1.1z M3.5,13.5V3.5h54.7
	c0,0.2-0.1,0.3-0.1,0.5c-0.3,0.6-0.1,2.4-0.2,2.9c-0.1,0.5-0.2,1.4-0.7,0.9c-0.6-0.5,0.1,4.2,0.2,5.2c0.1,1.1,0.4,1.4-0.1,2.3
	c-0.5,0.9-0.3,1.9-0.1,2.7c0.2,0.9-0.1,4.2,0,4.8c0.1,0.4-0.4,0.3-0.6,0.4c0.1-1.3,0.1-3-0.2-2.6c-0.5,0.6-0.3-1.8-0.4-2.6
	c-0.1-0.8,0.2-2.9-0.4-3.2c-0.6-0.3-0.5-3.8-1.4-3.5c-0.9,0.3-0.9-0.1-1.1,1.1c-0.2,1.3,0.1,3-0.3,3.4c0,0,0,0.1-0.1,0.1
	c0-0.3,0-0.5-0.1-0.7c-0.2-0.4-0.1-0.7-0.2-1.1c-0.1-0.4-0.1-1-0.5-0.2c-0.4,0.7-0.3,1.5-0.4,1.7c-0.1,0.2-0.2-0.2-0.4-0.2
	c-0.2,0-0.3,0.4-0.4,1.6c-0.1,1.1,0.2,1.3-0.2,1.5c-0.4,0.2-0.8,0.9-0.8,1.3c0,0.1,0,0.2,0,0.3l-0.8-0.7l-2.2,0
	c0-0.1-0.1-0.2-0.1-0.3c-0.3-0.6-0.2-0.9-0.1-1.7c0.1-0.8,0.6-4.2,0.2-3.8c-0.4,0.4-0.5-0.3-0.5-0.6c-0.1-0.4,0-1.7-0.2-2.2
	c-0.2-0.4-0.1-0.8-0.2-1.3c-0.2-0.5-0.1-1.1-0.5-0.3c-0.5,0.8-0.3,1.7-0.5,1.9c-0.2,0.3-0.2-0.2-0.5-0.2c-0.2,0-0.3,0.5-0.4,1.8
	c-0.1,1.3,0.2,1.5-0.3,1.7c-0.5,0.2-0.9,1-0.9,1.5c0,0.5,0.1,1.5,0.1,1.7c0,0.2-0.1,0.7-0.3,0.8c-0.1,0-0.3,0-0.4,1l-3.7,0
	c0-1.4,0.1-3,0.3-3.8c0.3-1.2-0.5-3-0.7-4c-0.2-0.9-0.7-0.4-1.1-0.9c-0.4-0.5-0.1-2.4-0.3-3.8c-0.2-1.4-0.3-0.9-1.2-1.3
	c-0.9-0.3-0.9,3.5-1.5,3.9c-0.6,0.3-0.3,2.7-0.4,3.5c-0.1,0.8,0.1,3.5-0.4,2.8c-0.4-0.6-0.4,2.2-0.2,3.5l-14,0v-2.6L17.3,17
	l-1.2-0.3l-0.2,0.3l0.4,0.1v2.4l-2.6,0l2.6,0.1v0l0.7,0.2V20l1.5-0.1v-0.2l0.2,0v0L32.8,20c0,0,0,0.1,0,0.1c0.1,0.4,0.1,1.5,0,2.5
	l-19.4-0.2l-2-3L9.3,25l0.8,0.5l0.4,12.3l0,0l-0.9,0.3l-0.9-0.1l-1,0.3c0,0-0.3,0.8-0.3,1.2c0,0.4,0.7,0.8,0.7,0.8s1.7,0.3-0.6,0.7
	c-0.6,0.1-1.4,0.3-2.3,0.6c0.1-0.1,0.2-0.2,0.2-0.4c0.9-1.5,0.3-1.7,0.6-2.5c0.3-0.8,0.4-2,0.7-3.1c0.3-1.1-0.5-0.1-0.1-4
	c0.4-3.9-0.5-2.9-0.5-3.5c0-0.6,0.1,0,0-3.4c-0.1-3.5-0.4-3.4-0.6-3.5c-0.2-0.1-0.3-0.6-0.3-0.8c0-0.3,0.2-1.3,0.1-1.8
	c0-0.5-0.5-1.4-1-1.6c-0.5-0.2-0.2-0.5-0.3-1.8c-0.1-1.4-0.2-1.8-0.5-1.9C3.6,13.3,3.5,13.4,3.5,13.5L3.5,13.5z M59.5,3.5h0.6v0.8
	c-0.2,0.1-0.3,0.5-0.5,0.2C59.5,4.3,59.5,3.9,59.5,3.5L59.5,3.5z M2.4,44.1V2.3h58.9v41.7H2.4z M56.7,43H8.6
	c4.9-0.9,11-1.8,18.6-2.4C38.7,39.6,49,41.1,56.7,43L56.7,43z M13.5,38.2l-0.4-13.8l-0.5-0.8l0.4,0.1l19.7,0.2
	c0,0.2-0.1,0.4-0.1,0.5c-0.4,1.1-0.5,1.6,0,2.8c0.5,1.3,0.3,2.1,0.3,3.2c0,0.3,0,0.5,0,0.7l-19.1,0l19.2,0.5
	c0.1,0.4,0.1,0.7,0.3,1.3c0.3,1.1,0.2,0.6-0.1,1.1c-0.3,0.5-0.2,0.5,0.4,2c0.3,0.7,0.9,1.3,1.4,1.7l-0.7,0.1l-2.5,0
	c0-0.1,0.1-0.3,0.1-0.3c0.1-0.2-0.2-0.5-0.2-0.5l0-1l0.1-0.5l-0.3-0.7l0-0.6l-0.1-0.3l-0.4-0.5L30.6,33l-0.4-0.2l-0.7-0.2l-0.3-0.1
	l-0.5,0.1l-0.3,0.1l-0.5,0l-0.2,0.5l-0.1-0.1l0.3,0l0.4-0.1l0.2-0.1l0.3,0l0.3,0l0.4,0l0.4,0.2l0.4,0.3c0,0,0.2,0.3,0.3,0.3
	c0.1,0.1,0.1,0.2,0.1,0.2s0.1,0.5,0.1,0.6c0,0.1,0,0.5,0,0.5s0.2,0.4,0.2,0.6c0,0.1,0.1,0.4,0.1,0.4s-0.1,0.3-0.1,0.4
	c0,0.1,0,0.5,0,0.5s0.1,0.4,0.1,0.4c0,0.1,0.1,0.3,0.1,0.5c0,0.1,0,0.4,0,0.4l0,0.1l-0.5,0l-0.1-3c0,0-0.2-1.6-1.5-1.5
	c-1.3,0.1-1.4,1.7-1.4,1.7l0.2,3.1l-0.6,0c0,0,0,0,0-0.1c0-0.1-0.1-0.2-0.1-0.3c0,0,0-0.5,0-0.7c0-0.2,0-0.1,0-0.2
	c0-0.1,0-0.1,0-0.2c0-0.1-0.1-0.2-0.1-0.4c-0.1-0.2-0.1-0.1-0.1-0.1l0,0.3c0,0,0,0.2-0.1,0.3c0,0.1,0,0.5,0,0.5l0,0.8l-3.7-0.1
	c0,0-0.7-0.4-0.9-0.5c-0.2-0.1-0.1-0.1-0.2-0.2c-0.1-0.2,0,0-0.1-0.2c-0.1-0.2-0.2-0.3-0.2-0.3l-0.2-0.1h0v-4.6h-2.4v4.6h2l0.1,0.2
	l0.1,0.5v0.5l-0.3,0.1l-0.5,0.2l-0.5,0.1l-0.9,0l-0.3-0.3c0,0,0,0,0.1-0.2c0.1-0.2,0.1-0.3,0.1-0.3l-0.1-0.3L19,37.4l-0.3,0.1
	l-0.5,0.1l-0.3,0c0,0-0.3-0.2-0.5-0.3c-0.2-0.2,0,0-0.6-0.3c0,0-0.1,0-0.1-0.1h2.1v-4.6h-2.4v4.6h0.2c0,0,0.1,0.1,0.1,0.1l-0.3,0.3
	L16.3,38l0.3,0.3l0.3,0.7l-1.3-0.1l-0.9,0l-0.5,0c0,0-0.2-0.1-0.3-0.3c-0.1-0.2-0.1-0.3-0.1-0.3L13.5,38.2L13.5,38.2z M36.7,37.9
	c0.3-0.2,0.7-0.5,1.2-0.8c0,0,0.1-0.1,0.1-0.1h1.3v-4.6h-0.8c0-0.2-0.1-0.3-0.1-0.3s0,0,0-0.1l2.7,0.1c0,0,0,0.1,0,0.1
	c0,0.1,0,0.2,0.1,0.3h-1.5v4.4c0,0-0.1,0-0.1,0c-0.4,0-0.1,0.2-0.1,0.2v0.5l-0.5,0.6L36.7,37.9L36.7,37.9z M40.4,36.9h0.7
	C41,37.1,40.6,37,40.6,37S40.5,37,40.4,36.9L40.4,36.9z M42,36.9h0.3v-0.1c0.1,0.1,0.1,0.3,0.2,0.4c0,0.1,0.1,0.1,0.1,0.2l-0.5,0
	L42,36.9L42,36.9z M45.9,37.4c0.2-0.3,0.3-0.4,0.3-0.4l0,0h0.3v-0.6c0.1-0.2,0.3-0.5,0.4-0.7v1.3h1.8c0,0.1,0,0.2,0,0.3
	c0,0.4-0.7,0.4-0.7,0.4s-0.3-0.1-0.5-0.2C47.4,37.3,46.2,37.4,45.9,37.4L45.9,37.4z M55.4,39.4c0.1-0.2,0.2-0.3,0.3-0.5
	c0.5-1.3,0.6-1.4,0.4-1.8c-0.2-0.4-0.3-0.1-0.2-0.7c0.4,1.1,1.5,3,1.5,3s0.2,0.2,0.4,0.6c-0.3-0.1-0.6,0-0.6,0s-1.4-0.4-1.6-0.5
	C55.5,39.5,55.4,39.5,55.4,39.4C55.4,39.5,55.4,39.5,55.4,39.4L55.4,39.4z M16.5,25h2.4v4.6h-2.4V25L16.5,25z M19.4,25h2.4v4.6h-2.4
	V25L19.4,25z M23.7,25h2.4v4.6h-2.4V25L23.7,25z M23.7,32.3h2.4v4.6h-2.4V32.3L23.7,32.3z M26.5,25H29v4.6h-2.4V25L26.5,25z
	 M17.2,17.2L17.2,17.2L17.2,17.2L17.2,17.2L17.2,17.2z M38.7,31.2c0.1-0.4,0.2-0.9,0.2-1.6h0.5V25h-0.5c0-0.4-0.1-0.7-0.1-1l3,0
	c0,0.7,0,0.7,0.1,1h-2v4.6h1.6c0,1,0,1.4-0.1,1.6L38.7,31.2L38.7,31.2z M47.6,32.1l0.6,0l0.2,0.1h-0.8L47.6,32.1L47.6,32.1z
	 M48.6,31.2l-0.9,0c0-0.4,0-0.7,0-1c0-0.2,0.1-0.5,0.1-0.7h0.7c0,0.3,0,0.7,0.1,1.2C48.5,31,48.6,31.1,48.6,31.2L48.6,31.2z
	 M49.6,21.6c0,0.2-0.1,0.5-0.2,0.5c-0.1,0-0.2,0-0.3,0.7l-2.6,0c0-0.6,0-1.2,0-1.5c0.1-0.3,0.1-0.6,0.1-0.9l1.7,0L49.6,21.6
	L49.6,21.6z M41.9,20.3c0,0.4,0,0.9-0.1,1.6c0,0.3,0,0.6,0,0.9l-3.3,0c-0.2-0.5-0.3-0.5-0.3-1.3c0-0.3,0-0.8,0-1.2L41.9,20.3
	L41.9,20.3z M47,28.4c-0.1-0.4,0-1,0-1.6V28.4L47,28.4z M47,25.1c-0.2-0.1-0.5,0-0.5-0.3c0-0.1,0-0.4,0-0.7l2.5,0c0,0.3,0,0.6,0,0.9
	L47,25.1L47,25.1L47,25.1z M56.3,27.9c-0.2-1.2-0.3-3-0.1-3.5c0,0,0,0,0,0C56.3,25.3,56.5,27,56.3,27.9L56.3,27.9z M0,0h63.6v46.4H0
	V0z"/>
</svg>
