<!-- Generator: Adobe Illustrator 18.1.1, SVG Export Plug-In  -->
<svg version="1.1" class="logo-arazzinni"
	 xmlns="http://www.w3.org/2000/svg" xmlns:xlink="http://www.w3.org/1999/xlink" xmlns:a="http://ns.adobe.com/AdobeSVGViewerExtensions/3.0/"
	 x="0px" y="0px" width="171.8px" height="45px" viewBox="0 0 171.8 45" enable-background="new 0 0 171.8 45" xml:space="preserve"
	>
<defs>
</defs>
<g>
	<g>
		<path fill-rule="evenodd" clip-rule="evenodd" fill="#886137" d="M10.4,8c1.5,6.9,2.4,11.2,3.6,16.9h6.7L14,0H6.9L0.1,24.9h6.6
			C8.3,17.9,8.6,16.5,10.4,8L10.4,8z M37.7,17.4c0.9-0.3,1.7-0.9,2.2-1.6c0.9-1.1,1.4-2.6,1.4-4.5v-5c0-1.9-0.5-3.4-1.4-4.5
			c-0.6-0.7-1.3-1.2-2.3-1.6C36.9,0.1,36.2,0,35.2,0H24v24.9h6.5v-7.1h0.1l3.8,7.1h7.3L37.7,17.4L37.7,17.4z M34.9,12.8h-4.3V6.4
			h4.3V12.8L34.9,12.8z M54.9,8c1.5,7.1,2.4,11.1,3.6,16.9h6.7L58.5,0h-7.2l-6.8,24.9h6.6C52.7,18.3,53.2,16,54.9,8L54.9,8z M85,0
			H68.5v6.4h8.2l-8.2,12.2v6.3H85v-6.4h-8.6L85,5.8V0L85,0z M105.7,0H89.3v6.4h8.2l-8.2,12.2v6.3h16.4v-6.4h-8.6l8.6-12.7V0L105.7,0
			z M116.6,0h-6.5v24.9h6.5V0L116.6,0z M127.4,13.5l5.5,11.4h5.8V0h-6.5v11.4L126.8,0h-5.8v24.9h6.5V13.5L127.4,13.5z M149.6,13.5
			l5.5,11.4h5.9V0h-6.5v11.4L149,0h-5.9v24.9h6.5V13.5L149.6,13.5z M171.8,0h-6.5v24.9h6.5V0z"/>
		<g>
			<path fill="#886137" d="M6.8,34.9h2.7V45H6.9v-3.9L5.4,45H4.2l-1.5-3.9V45H0V34.9h2.7l2.1,5.3L6.8,34.9z"/>
			<path fill="#886137" d="M16.5,45h-2.7l2.7-10.1h2.9L22.1,45h-2.7l-0.3-1.6h-2.3L16.5,45z M17.3,41.4h1.4L18,38.1L17.3,41.4z"/>
			<path fill="#886137" d="M26.4,45V34.9H29v4.3h0l1.7-4.3h2.8l-2.1,5.4l2.1,4.7h-2.9L29,41.2h0V45H26.4z"/>
			<path fill="#886137" d="M43.9,45h-6.2V34.9h6.2v2.6h-3.6v1.4h3.3v2h-3.3v1.4h3.6V45z"/>
			<path fill="#886137" d="M56.7,45H54l2.7-10.1h2.9L62.3,45h-2.7l-0.3-1.6H57L56.7,45z M57.5,41.4h1.4l-0.7-3.2L57.5,41.4z"/>
			<path fill="#886137" d="M74.9,34.9H79v2.6h-4v1.1l4,1.2V42c0,0.7-0.1,1.3-0.4,1.8c-0.2,0.3-0.5,0.6-0.8,0.8
				C77.4,44.9,77,45,76.6,45h-4.2v-2.6h4v-1.1l-4-1.2v-2.7c0-0.8,0.2-1.4,0.6-1.8c0.2-0.3,0.6-0.5,0.9-0.6
				C74.2,35,74.5,34.9,74.9,34.9z"/>
			<path fill="#886137" d="M90.7,34.9v2.6h-2.2V45h-2.6v-7.5h-2.2v-2.6H90.7z"/>
			<path fill="#886137" d="M96.5,45h-2.7l2.7-10.1h2.9l2.7,10.1h-2.7l-0.3-1.6h-2.3L96.5,45z M97.2,41.4h1.4l-0.7-3.2L97.2,41.4z"/>
			<path fill="#886137" d="M112.3,34.9v2.6h-2.2V45h-2.6v-7.5h-2.2v-2.6H112.3z"/>
			<path fill="#886137" d="M123.2,45H117V34.9h6.2v2.6h-3.6v1.4h3.3v2h-3.3v1.4h3.6V45z"/>
			<path fill="#886137" d="M134.7,34.9h2.7V45h-2.6v-3.9l-1.5,3.9H132l-1.5-3.9V45h-2.6V34.9h2.7l2.1,5.3L134.7,34.9z"/>
			<path fill="#886137" d="M148.3,45h-6.2V34.9h6.2v2.6h-3.6v1.4h3.3v2h-3.3v1.4h3.6V45z"/>
			<path fill="#886137" d="M155.6,45H153V34.9h2.4l2.2,4.6v-4.6h2.6V45h-2.4l-2.2-4.6V45z"/>
			<path fill="#886137" d="M171.8,34.9v2.6h-2.2V45H167v-7.5h-2.2v-2.6H171.8z"/>
		</g>
	</g>
</g>
</svg>
