<!-- Generator: Adobe Illustrator 18.1.1, SVG Export Plug-In  -->
<svg version="1.1"
	 xmlns="http://www.w3.org/2000/svg" xmlns:xlink="http://www.w3.org/1999/xlink" xmlns:a="http://ns.adobe.com/AdobeSVGViewerExtensions/3.0/"
	 x="0px" y="0px" width="315px" height="639px" viewBox="0 0 315 639" enable-background="new 0 0 315 639" xml:space="preserve">
<defs>
</defs>
<rect x="43" y="354" fill="#886137" width="37" height="3"/>
<rect x="31" y="349" fill="#886137" width="14" height="13"/>
<path opacity="5.000000e-002" d="M168,355h-29.9c-0.1-5-0.1-7.7-0.1-8.7c0-10.3,1.6-18.9,4.8-25.5c3.2-6.6,9.7-14.2,19.4-22.4
	c9.7-8.3,15.5-13.7,17.4-16.3c2.9-4,4.4-8.5,4.4-13.4c0-6.8-2.6-12.6-7.7-17.4c-5.2-4.8-12.1-7.3-20.8-7.3c-8.4,0-15.5,2.5-21.1,7.6
	c-5.7,5-9.6,12.7-11.7,23.1l-30.5-4c0.9-14.8,6.9-27.4,18-37.7c11.1-10.3,25.8-15.5,43.9-15.5c19.1,0,34.2,5.2,45.5,15.7
	c11.3,10.5,16.9,22.6,16.9,36.5c0,7.7-2.1,15-6.2,21.8c-4.1,6.9-13,16.2-26.5,28c-7,6.1-11.4,10.9-13,14.7
	c-1.7,3.7-2.4,11.1-2.3,20.4 M137,367h33v35h-33V367z"/>
<rect y="0" fill="#886137" width="22" height="639.3"/>
<rect x="293" y="0" fill="#886137" width="22" height="639.3"/>
<rect x="21" y="-0.3" fill="#886137" width="272" height="21.8"/>
</svg>
