<!-- Generator: Adobe Illustrator 18.1.1, SVG Export Plug-In  -->
<svg version="1.1"
	 xmlns="http://www.w3.org/2000/svg" xmlns:xlink="http://www.w3.org/1999/xlink" xmlns:a="http://ns.adobe.com/AdobeSVGViewerExtensions/3.0/"
	 x="0px" y="0px" width="17px" height="17px" viewBox="0 0 17 17" enable-background="new 0 0 17 17" xml:space="preserve">
<defs>
</defs>
<g>
	<g>
		<g>
			<path fill="#FFFFFF" d="M16.5,3H15V1.2C15,0.7,14.8,0,14.3,0h-0.6C13.2,0,13,0.7,13,1.2V3H5V1.2C5,0.7,4.1,0,3.6,0H3
				C2.5,0,2,0.7,2,1.2V3H0.9C0.4,3,0,2.9,0,3.4v12.7C0,16.6,0.4,17,0.9,17h15.6c0.5,0,0.5-0.4,0.5-0.8V3.4C17,2.9,17,3,16.5,3z
				 M16,15H2V6h14V15L16,15z"/>
			<path fill="#FFFFFF" d="M6,7.7C6,7.3,5.7,7,5.3,7H3.7C3.3,7,3,7.3,3,7.7v1.6C3,9.7,3.3,10,3.7,10h1.6C5.7,10,6,9.7,6,9.3V7.7z"/>
			<path fill="#FFFFFF" d="M10,7.7C10,7.3,9.7,7,9.3,7H7.7C7.3,7,7,7.3,7,7.7v1.6C7,9.7,7.3,10,7.7,10h1.6C9.7,10,10,9.7,10,9.3V7.7
				z"/>
			<path fill="#FFFFFF" d="M15,7.7C15,7.3,14.7,7,14.3,7h-1.6C12.3,7,12,7.3,12,7.7v1.6c0,0.4,0.3,0.7,0.7,0.7h1.6
				c0.4,0,0.7-0.3,0.7-0.7V7.7z"/>
			<path fill="#FFFFFF" d="M6,11.7C6,11.3,5.7,11,5.3,11H3.7C3.3,11,3,11.3,3,11.7v1.6C3,13.7,3.3,14,3.7,14h1.6
				C5.7,14,6,13.7,6,13.3V11.7z"/>
			<path fill="#FFFFFF" d="M10,11.7c0-0.4-0.3-0.7-0.7-0.7H7.7C7.3,11,7,11.3,7,11.7v1.6C7,13.7,7.3,14,7.7,14h1.6
				c0.4,0,0.7-0.3,0.7-0.7V11.7z"/>
			<path fill="#FFFFFF" d="M15,11.7c0-0.4-0.3-0.7-0.7-0.7h-1.6c-0.4,0-0.7,0.3-0.7,0.7v1.6c0,0.4,0.3,0.7,0.7,0.7h1.6
				c0.4,0,0.7-0.3,0.7-0.7V11.7z"/>
		</g>
	</g>
</g>
</svg>
