<!-- Generator: Adobe Illustrator 18.1.1, SVG Export Plug-In  -->
<svg version="1.1"
	 xmlns="http://www.w3.org/2000/svg" xmlns:xlink="http://www.w3.org/1999/xlink" xmlns:a="http://ns.adobe.com/AdobeSVGViewerExtensions/3.0/"
	 x="0px" y="0px" width="27px" height="26.9px" viewBox="0 0 27 26.9" enable-background="new 0 0 27 26.9" xml:space="preserve">
<defs>
</defs>
<g>
	<g>
		<path fill="#886137" d="M26.4,21.3l-4.2-4.2c-0.8-0.8-2.2-0.8-3.1,0.1l-2.1,2.1c-0.1-0.1-0.3-0.1-0.4-0.2
			c-1.3-0.7-3.1-1.7-5.1-3.7c-1.9-1.9-2.9-3.7-3.7-5.1c-0.1-0.1-0.2-0.3-0.2-0.4l1.4-1.4l0.7-0.7c0.9-0.9,0.9-2.2,0.1-3.1L5.7,0.6
			C4.9-0.2,3.5-0.2,2.6,0.7L1.5,1.8l0,0C1.1,2.4,0.8,3,0.5,3.6C0.3,4.2,0.1,4.7,0.1,5.3c-0.6,4.6,1.5,8.7,7.2,14.4
			c7.8,7.8,14.1,7.2,14.4,7.2c0.6-0.1,1.2-0.2,1.7-0.4c0.6-0.2,1.2-0.6,1.7-1l0,0l1.2-1.2C27.2,23.5,27.2,22.1,26.4,21.3z
			 M25.4,23.4L24.9,24l-0.2,0.2c-0.3,0.3-0.9,0.8-1.7,1.1c-0.5,0.2-0.9,0.3-1.4,0.4c-0.1,0-6,0.5-13.3-6.8C2,12.5,1,9,1.4,5.5
			C1.4,5,1.6,4.5,1.7,4.1c0.3-0.8,0.8-1.4,1.1-1.7l0.7-0.7c0.3-0.4,0.9-0.4,1.2-0.1l4.2,4.2C9.3,6,9.2,6.6,8.9,6.9L6.1,9.7l0.3,0.4
			c0.1,0.2,0.3,0.5,0.5,0.8c0.8,1.4,1.8,3.3,3.9,5.4c2,2,4,3.1,5.3,3.9c0.3,0.2,0.6,0.3,0.8,0.5l0.4,0.3l2.8-2.8
			c0.4-0.3,0.9-0.4,1.2-0.1l4.2,4.2C25.8,22.6,25.8,23.1,25.4,23.4z"/>
	</g>
</g>
</svg>
