<!-- Generator: Adobe Illustrator 18.1.1, SVG Export Plug-In  -->
<svg version="1.1"
	 xmlns="http://www.w3.org/2000/svg" xmlns:xlink="http://www.w3.org/1999/xlink" xmlns:a="http://ns.adobe.com/AdobeSVGViewerExtensions/3.0/"
	 x="0px" y="0px" width="19.3px" height="18px" viewBox="0 0 19.3 18" enable-background="new 0 0 19.3 18" xml:space="preserve">
<defs>
</defs>
<path id="linkedin-icon_1_" d="M4.7,2.2c0,1.2-1.1,2.2-2.4,2.2C1.1,4.4,0,3.4,0,2.2C0,1,1.1,0,2.4,0
	C3.7,0,4.7,1,4.7,2.2z M4.4,6h-4v12h4V6z M10.8,6H6.9v12h3.8c0,0,0-4.5,0-6.3c0-1.7,0.8-2.7,2.4-2.7c1.5,0,2.2,1,2.2,2.7
	c0,1.7,0,6.3,0,6.3h4c0,0,0-4.4,0-7.6c0-3.2-2-4.8-4.7-4.8c-2.7,0-3.9,2-3.9,2V6L10.8,6z"/>
</svg>
