<!-- Generator: Adobe Illustrator 18.1.1, SVG Export Plug-In  -->
<svg version="1.1"
	 xmlns="http://www.w3.org/2000/svg" xmlns:xlink="http://www.w3.org/1999/xlink" xmlns:a="http://ns.adobe.com/AdobeSVGViewerExtensions/3.0/"
	 x="0px" y="0px" width="24px" height="16px" viewBox="0 0 24 16" enable-background="new 0 0 24 16" xml:space="preserve">
<defs>
</defs>
<path d="M15.5,6.5c0.1,0.5,0.2,1.1,0.2,1.7c0,4.6-3.1,7.8-7.7,7.8c-4.4,0-8-3.6-8-8s3.6-8,8-8c2.2,0,4,0.8,5.4,2.1
	l-2.3,2.3v0C10.3,3.5,9.2,3.1,8,3.1C5.4,3.1,3.2,5.4,3.2,8c0,2.6,2.1,4.9,4.8,4.9c2.4,0,4-1.4,4.4-3.3H8V6.5H15.5z M21.5,7V4.5h-2V7
	H17v2h2.5v2.5h2V9H24V7H21.5z"/>
</svg>
