<!-- Generator: Adobe Illustrator 18.1.1, SVG Export Plug-In  -->
<svg version="1.1"
	 xmlns="http://www.w3.org/2000/svg" xmlns:xlink="http://www.w3.org/1999/xlink" xmlns:a="http://ns.adobe.com/AdobeSVGViewerExtensions/3.0/"
	 x="0px" y="0px" width="30.2px" height="20px" viewBox="0 0 30.2 20" enable-background="new 0 0 30.2 20" xml:space="preserve">
<defs>
</defs>
<g>
	<g id="Shape_17_1_">
		<g>
			<path fill="#886137" d="M30.2,2c0,0-0.2-1-0.6-1.4c0,0,0,0.1,0,0.1c0,0,0,0.1,0,0C29.2,0.2,28.5,0,27.8,0h-25
				C2.1,0,1.5,0.3,1,0.8c0,0,0,0,0,0c0,0-0.2,0-0.2,0C0.4,1.3,0,1.9,0,2.5v14.7c0,0.7,0.4,1.2,0.9,1.7c0,0,0.1,0,0.1,0
				c0,0,0,0.2,0.1,0.2C1.5,19.5,2.1,20,2.9,20h25c0.7,0,1.3-0.5,1.8-0.9c0,0,0-0.1,0-0.1c0,0-0.2-0.1-0.1-0.1
				c0.4-0.4,0.5-1.1,0.5-1.7V2H30.2z M20.5,9.1L29,1.9c0.1,0.2,0,0.4,0,0.6v14.7c0,0.2,0.1,0.4,0,0.5L20.5,9.1z M27.8,1
				c0.2,0,0.4,0.1,0.6,0.1L15.3,12L2.2,1.1C2.4,1.1,2.6,1,2.9,1H27.8z M1.3,17.7C1.2,17.6,1,17.4,1,17.2V2.5c0-0.2,0.2-0.4,0.3-0.6
				L10,9.1L1.3,17.7z M3,18.8c0,0-0.5-0.2-0.7-0.3L11,9.8l4,3.3c0.1,0.1,0.2,0.1,0.3,0.1c0.1,0,0.2,0,0.3-0.1l4-3.4l8.8,8.9
				c-0.2,0.1-0.4,0.3-0.7,0.3H3V18.8z"/>
		</g>
	</g>
</g>
</svg>
