<!-- Generator: Adobe Illustrator 18.1.1, SVG Export Plug-In  -->
<svg version="1.1"
	 xmlns="http://www.w3.org/2000/svg" xmlns:xlink="http://www.w3.org/1999/xlink" xmlns:a="http://ns.adobe.com/AdobeSVGViewerExtensions/3.0/"
	 x="0px" y="0px" width="23.8px" height="35px" viewBox="0 0 23.8 35" enable-background="new 0 0 23.8 35" xml:space="preserve">
<defs>
</defs>
<g>
	<g>
		<g>
			<path fill="#886137" d="M11.9,1c2.9,0,5.6,1.1,7.7,3.2c2.1,2,3.2,4.8,3.2,7.6c0,3.4-3.6,8.9-3.6,8.9l-7.7,12.3L4.2,20.6
				C3.3,19,1,14.3,1,11.8C1,5.8,5.9,1,11.9,1 M11.8,19.3c4.3,0,7.8-3.5,7.8-7.8c0-4.3-3.5-7.8-7.8-7.8C7.5,3.7,4,7.2,4,11.5
				C4,15.8,7.5,19.3,11.8,19.3 M11.9,0C5.3,0,0,5.3,0,11.8c0,3.3,3.3,9.3,3.3,9.3L11.5,35L20,21.3c0,0,3.8-5.7,3.8-9.5
				C23.8,5.3,18.5,0,11.9,0L11.9,0z M11.8,18.3c-3.8,0-6.8-3-6.8-6.8c0-3.8,3-6.8,6.8-6.8c3.8,0,6.8,3,6.8,6.8
				C18.6,15.3,15.6,18.3,11.8,18.3L11.8,18.3z"/>
		</g>
	</g>
</g>
</svg>
