<!-- Generator: Adobe Illustrator 18.1.1, SVG Export Plug-In  -->
<svg version="1.1"
	 xmlns="http://www.w3.org/2000/svg" xmlns:xlink="http://www.w3.org/1999/xlink" xmlns:a="http://ns.adobe.com/AdobeSVGViewerExtensions/3.0/"
	 x="0px" y="0px" width="20px" height="16px" viewBox="0 0 20 16" enable-background="new 0 0 20 16" xml:space="preserve">
<defs>
</defs>
<path d="M20,1.9c-0.7,0.3-1.5,0.5-2.4,0.6c0.8-0.5,1.5-1.3,1.8-2.2c-0.8,0.5-1.7,0.8-2.6,1C16.1,0.5,15,0,13.9,0
	c-2.3,0-4.1,1.8-4.1,4c0,0.3,0,0.6,0.1,0.9C6.4,4.8,3.4,3.2,1.4,0.7C1,1.3,0.8,2,0.8,2.8c0,1.4,0.7,2.6,1.8,3.4
	C2,6.1,1.4,5.9,0.8,5.6c0,0,0,0,0,0.1c0,2,1.4,3.6,3.3,4C3.8,9.7,3.4,9.8,3,9.8c-0.3,0-0.5,0-0.8-0.1c0.5,1.6,2,2.8,3.8,2.8
	c-1.4,1.1-3.2,1.7-5.1,1.7c-0.3,0-0.7,0-1-0.1C1.8,15.3,4,16,6.3,16C13.8,16,18,9.8,18,4.5c0-0.2,0-0.3,0-0.5
	C18.8,3.4,19.5,2.7,20,1.9z"/>
</svg>
