<!-- Generator: Adobe Illustrator 18.1.1, SVG Export Plug-In  -->
<svg version="1.1"
	 xmlns="http://www.w3.org/2000/svg" xmlns:xlink="http://www.w3.org/1999/xlink" xmlns:a="http://ns.adobe.com/AdobeSVGViewerExtensions/3.0/"
	 x="0px" y="0px" width="36.5px" height="51px" viewBox="0 0 36.5 51" enable-background="new 0 0 36.5 51" xml:space="preserve">
<defs>
</defs>
<g>
	<circle fill="#FFFFFF" cx="18.5" cy="18" r="16"/>
	<g>
		<path fill="#886137" d="M18.2,0C8.2,0,0,8.2,0,18.2c0,9.4,13.6,19.7,17.6,32.3c0.1,0.3,0.3,0.5,0.6,0.5c0.3,0,0.5-0.2,0.6-0.5
			c3.8-12.9,17.6-22.8,17.6-32.3C36.5,8.2,28.3,0,18.2,0z M18.2,32.1c-7.9,0-14.3-6.4-14.3-14.3c0-7.9,6.4-14.3,14.3-14.3
			c7.9,0,14.3,6.4,14.3,14.3C32.5,25.6,26.1,32.1,18.2,32.1z"/>
	</g>
	<path fill-rule="evenodd" clip-rule="evenodd" fill="#8A6138" d="M18,13.7c1.1,5,1.8,8.1,2.6,12.2h4.8L20.6,8h-5.2l-4.9,18h4.8
		C16.5,20.9,16.7,19.9,18,13.7"/>
</g>
</svg>
