<!-- Generator: Adobe Illustrator 18.1.1, SVG Export Plug-In  -->
<svg version="1.1"
	 xmlns="http://www.w3.org/2000/svg" xmlns:xlink="http://www.w3.org/1999/xlink" xmlns:a="http://ns.adobe.com/AdobeSVGViewerExtensions/3.0/"
	 x="0px" y="0px" width="30px" height="26.3px" viewBox="0 0 30 26.3" enable-background="new 0 0 30 26.3" xml:space="preserve">
<defs>
</defs>
<path fill="#616161" d="M29.9,8.8c-0.1-0.2-0.3-0.2-0.5-0.2h-7l-5.6-8.3c-0.2-0.3-0.6-0.4-0.9-0.2c-0.3,0.2-0.4,0.6-0.2,0.9l5.1,7.6
	H9L14.1,1c0.2-0.3,0.1-0.7-0.2-0.9S13.3,0,13.1,0.3L7.5,8.6H0.6c-0.2,0-0.4,0.1-0.5,0.2C0,9,0,9.2,0,9.4l4.3,16.5
	c0.1,0.3,0.3,0.5,0.6,0.5h20.2c0.3,0,0.5-0.2,0.6-0.5L30,9.4C30,9.2,30,9,29.9,8.8z M26,19.6h-6.2v-4.3h7.3L26,19.6z M18.6,19.6
	h-7.3v-4.3h7.3V19.6z M18.6,20.8v4.3h-7.3v-4.3H18.6z M2.8,15.3h7.3v4.3H4L2.8,15.3z M11.4,14.1V9.8h7.3v4.3H11.4z M7.8,9.8L7.8,9.8
	L7.8,9.8h2.3v4.3H2.5L1.4,9.8H7.8z M4.3,20.8h5.8v4.3H5.4L4.3,20.8z M24.6,25.1h-4.7v-4.3h5.8L24.6,25.1z M27.5,14.1h-7.6V9.8h2.2h0
	h0h6.5L27.5,14.1z"/>
</svg>
