<!-- Generator: Adobe Illustrator 18.1.1, SVG Export Plug-In  -->
<svg version="1.1"
	 xmlns="http://www.w3.org/2000/svg" xmlns:xlink="http://www.w3.org/1999/xlink" xmlns:a="http://ns.adobe.com/AdobeSVGViewerExtensions/3.0/"
	 x="0px" y="0px" viewBox="0 0 24 26" enable-background="new 0 0 24 26" xml:space="preserve">
<defs>
</defs>
<g>
	<g>
		<g>
			<g>
				<g>
					<path d="M22.3,7H22V1.9C22,1,21.2,0,20.4,0h-0.7l-0.1,0.2c-5.4,0.9-18,4.7-18.1,4.8C0,5.3,0,6.5,0,7.2v1.4v13.9
						v1.9C0,25.3,0.7,26,1.6,26h20.7c0.9,0,1.7-0.7,1.7-1.6v-3.9v-6.4V8.5C24,7.6,23.2,7,22.3,7z M1.8,5.8C1.9,5.7,14.3,2,19.7,1
						h0.7C20.7,1,21,1.6,21,1.9V7H1.6C1.4,7,1.2,6.9,1,7C1,6.5,1,6,1.8,5.8z M23,20h-6.3c-0.4,0-0.7-0.7-0.7-1.1v-3.2
						c0-0.4,0.3-0.7,0.7-0.7H23V20z"/>
				</g>
			</g>
		</g>
	</g>
</g>
</svg>
