<!-- Generator: Adobe Illustrator 18.1.1, SVG Export Plug-In  -->
<svg version="1.1"
	 xmlns="http://www.w3.org/2000/svg" xmlns:xlink="http://www.w3.org/1999/xlink" xmlns:a="http://ns.adobe.com/AdobeSVGViewerExtensions/3.0/"
	 x="0px" y="0px" width="44.6px" height="30.3px" viewBox="0 0 44.6 30.3" enable-background="new 0 0 44.6 30.3"
	 xml:space="preserve">
<defs>
</defs>
<path fill="none" stroke="#886137" stroke-miterlimit="10" d="M29,12.5c0.2,1,0.3,2,0.3,3.1c0,8.4-5.6,14.4-14.1,14.4
	c-8.1,0-14.7-6.6-14.7-14.7S7.1,0.5,15.2,0.5c4,0,7.3,1.5,9.8,3.8l-4.1,4.1v0c-1.5-1.5-3.5-2.2-5.7-2.2c-4.8,0-8.8,4.1-8.8,8.9
	c0,4.8,3.9,9,8.8,9c4.4,0,7.4-2.5,8-6h-8v-5.7H29z M40,13.4V8.8h-3.7v4.6h-4.6V17h4.6v4.6H40V17h4.6v-3.7H40z"/>
</svg>
