<!-- Generator: Adobe Illustrator 18.1.1, SVG Export Plug-In  -->
<svg version="1.1"
	 xmlns="http://www.w3.org/2000/svg" xmlns:xlink="http://www.w3.org/1999/xlink" xmlns:a="http://ns.adobe.com/AdobeSVGViewerExtensions/3.0/"
	 x="0px" y="0px" width="40.3px" height="30.4px" viewBox="0 0 40.3 30.4" enable-background="new 0 0 40.3 30.4"
	 xml:space="preserve">
<defs>
</defs>
<path stroke-miterlimit="10" d="M38.9,4c-1.4,0.6-2.8,1-4.3,1.2c1.6-0.9,2.8-2.4,3.3-4.1
	c-1.5,0.8-3.1,1.5-4.8,1.8c-1.4-1.4-3.3-2.3-5.5-2.3C23.4,0.5,20,3.9,20,8c0,0.6,0.1,1.1,0.2,1.7C14,9.3,8.4,6.4,4.7,1.9
	c-0.6,1.1-1,2.4-1,3.7c0,2.6,1.3,4.8,3.4,6.2c-1.2,0-2.4-0.4-3.4-0.9c0,0,0,0.1,0,0.1c0,3.6,2.6,6.6,6,7.3c-0.6,0.2-1.3,0.3-2,0.3
	c-0.5,0-1,0-1.4-0.1c1,2.9,3.7,5.1,7,5.2c-2.6,2-5.8,3.2-9.4,3.2c-0.6,0-1.2,0-1.8-0.1c3.3,2.1,7.3,3.3,11.6,3.3
	c13.9,0,21.4-11.3,21.4-21.1c0-0.3,0-0.6,0-1C36.6,6.8,37.9,5.5,38.9,4z"/>
</svg>
