<!-- Generator: Adobe Illustrator 18.1.1, SVG Export Plug-In  -->
<svg version="1.1"
	 xmlns="http://www.w3.org/2000/svg" xmlns:xlink="http://www.w3.org/1999/xlink" xmlns:a="http://ns.adobe.com/AdobeSVGViewerExtensions/3.0/"
	 x="0px" y="0px" width="25px" height="17px" viewBox="0 0 25 17" enable-background="new 0 0 25 17" xml:space="preserve">
<defs>
</defs>
<path stroke="#FFFFFF" stroke-miterlimit="10" d="M16,7c0.1,0.5,0.2,1.1,0.2,1.7c0,4.6-3.1,7.8-7.7,7.8
	c-4.4,0-8-3.6-8-8s3.6-8,8-8c2.2,0,4,0.8,5.4,2.1l-2.3,2.3v0C10.8,4,9.7,3.6,8.5,3.6c-2.6,0-4.8,2.2-4.8,4.9c0,2.6,2.1,4.9,4.8,4.9
	c2.4,0,4-1.4,4.4-3.3H8.5V7H16z M22,7.5V5h-2v2.5h-2.5v2H20V12h2V9.5h2.5v-2H22z"/>
</svg>
