<!-- Generator: Adobe Illustrator 18.1.1, SVG Export Plug-In  -->
<svg version="1.1"
	 xmlns="http://www.w3.org/2000/svg" xmlns:xlink="http://www.w3.org/1999/xlink" xmlns:a="http://ns.adobe.com/AdobeSVGViewerExtensions/3.0/"
	 x="0px" y="0px" width="20.3px" height="19px" viewBox="0 0 20.3 19" enable-background="new 0 0 20.3 19" xml:space="preserve">
<defs>
</defs>
<path id="linkedin-icon_1_" fill="none" stroke="#FFFFFF" stroke-miterlimit="10" d="M5.2,2.7c0,1.2-1.1,2.2-2.4,2.2
	c-1.3,0-2.4-1-2.4-2.2c0-1.2,1.1-2.2,2.4-2.2C4.2,0.5,5.2,1.5,5.2,2.7z M4.9,6.5h-4v12h4V6.5z M11.3,6.5H7.4v12h3.8c0,0,0-4.5,0-6.3
	c0-1.7,0.8-2.7,2.4-2.7c1.5,0,2.2,1,2.2,2.7c0,1.7,0,6.3,0,6.3h4c0,0,0-4.4,0-7.6c0-3.2-2-4.8-4.7-4.8c-2.7,0-3.9,2-3.9,2V6.5
	L11.3,6.5z"/>
</svg>
