<!-- Generator: Adobe Illustrator 18.1.1, SVG Export Plug-In  -->
<svg version="1.1"
	 xmlns="http://www.w3.org/2000/svg" xmlns:xlink="http://www.w3.org/1999/xlink" xmlns:a="http://ns.adobe.com/AdobeSVGViewerExtensions/3.0/"
	 x="0px" y="0px" width="23.5px" height="17.3px" viewBox="0 0 23.5 17.3" enable-background="new 0 0 23.5 17.3"
	 xml:space="preserve">
<defs>
</defs>
<path stroke="#FFFFFF" stroke-miterlimit="10" d="M22.2,2.7c-0.7,0.3-1.5,0.5-2.4,0.6c0.8-0.5,1.5-1.3,1.8-2.2
	c-0.8,0.5-1.7,0.8-2.6,1c-0.7-0.8-1.8-1.3-3-1.3c-2.3,0-4.1,1.8-4.1,4c0,0.3,0,0.6,0.1,0.9C8.6,5.6,5.6,4,3.5,1.5
	C3.2,2.1,3,2.8,3,3.6C3,5,3.7,6.2,4.8,6.9C4.1,6.9,3.5,6.7,3,6.4c0,0,0,0,0,0.1c0,2,1.4,3.6,3.3,4c-0.3,0.1-0.7,0.1-1.1,0.1
	c-0.3,0-0.5,0-0.8-0.1c0.5,1.6,2,2.8,3.8,2.8C6.8,14.4,5.1,15,3.1,15c-0.3,0-0.7,0-1-0.1c1.8,1.1,4,1.8,6.3,1.8
	c7.6,0,11.7-6.2,11.7-11.5c0-0.2,0-0.3,0-0.5C20.9,4.2,21.6,3.5,22.2,2.7z"/>
</svg>
