<!-- Generator: Adobe Illustrator 18.1.1, SVG Export Plug-In  -->
<svg version="1.1"
	 xmlns="http://www.w3.org/2000/svg" xmlns:xlink="http://www.w3.org/1999/xlink" xmlns:a="http://ns.adobe.com/AdobeSVGViewerExtensions/3.0/"
	 x="0px" y="0px" width="20px" height="20px" viewBox="0 0 18 17.6" enable-background="new 0 0 18 17.6" xml:space="preserve">
<defs>
</defs>
<g>
	<g>
		<g>
			<g>
				<path fill="#886137" d="M10,17.6H8.1c-0.3,0-0.4,0-1.4-2.4L6,14.9c-2,0.9-2.3,0.9-2.4,0.9H3.5l-0.1-0.1L2,14.4
					c-0.2-0.2-0.3-0.3,0.8-2.6l-0.3-0.7C0,10.2,0,10.1,0,9.8V7.9c0-0.3,0-0.4,2.5-1.3l0.3-0.7c-1.1-2.3-1-2.4-0.8-2.6l1.4-1.4l0.2,0
					c0.2,0,1,0.3,2.4,0.9l0.7-0.3C7.6,0,7.7,0,8,0h1.9c0.3,0,0.4,0,1.4,2.4L12,2.7c2-0.9,2.3-0.9,2.4-0.9h0.2l0.1,0.1L16,3.2
					c0.2,0.2,0.3,0.3-0.8,2.6l0.3,0.7C18,7.5,18,7.6,18,7.9v1.9c0,0.3,0,0.4-2.5,1.3l-0.3,0.7c1.1,2.3,1,2.4,0.8,2.6l-1.5,1.4
					l-0.2,0c-0.2,0-1-0.3-2.4-0.9l-0.8,0.3C10.4,17.6,10.3,17.6,10,17.6z M8.3,16.9h1.5c0.2-0.3,0.5-1.3,0.8-2.1l0.1-0.2l1.4-0.5
					l0.1,0.1c0.8,0.3,1.8,0.7,2.1,0.8l1-1c-0.1-0.4-0.5-1.3-0.9-2l-0.1-0.2l0.6-1.3l0.2-0.1c0.8-0.3,1.8-0.7,2.1-0.9V8.1
					c-0.4-0.2-1.3-0.5-2.1-0.8L15,7.2l-0.6-1.3l0.1-0.2c0.3-0.8,0.7-1.7,0.9-2.1l-1.1-1c-0.3,0.1-1.3,0.5-2.1,0.9L12,3.5L10.7,3
					l-0.1-0.2C10.3,2,9.9,1.1,9.7,0.8H8.2C8,1.1,7.7,2,7.4,2.8L7.3,3L6,3.5L5.8,3.5C5,3.1,4,2.8,3.7,2.6l-1,1c0.1,0.4,0.5,1.3,0.9,2
					l0.1,0.2L3,7.2L2.9,7.3C2.1,7.6,1.1,8,0.8,8.1v1.4c0.4,0.2,1.3,0.5,2.1,0.8L3,10.5l0.6,1.3l-0.1,0.2c-0.3,0.8-0.7,1.7-0.9,2.1
					l1.1,1c0.3-0.1,1.3-0.5,2.1-0.9L6,14.1l1.4,0.6l0.1,0.2C7.7,15.6,8.1,16.5,8.3,16.9z M9,11.9c-1.7,0-3.1-1.4-3.1-3.1
					c0-1.7,1.4-3.1,3.1-3.1c1.7,0,3.1,1.4,3.1,3.1C12.1,10.5,10.7,11.9,9,11.9z M9,6.5c-1.3,0-2.4,1-2.4,2.3c0,1.3,1.1,2.3,2.4,2.3
					c1.3,0,2.4-1,2.4-2.3C11.4,7.5,10.3,6.5,9,6.5z"/>
			</g>
		</g>
	</g>
</g>
</svg>
