<!-- Generator: Adobe Illustrator 18.1.1, SVG Export Plug-In  -->
<svg version="1.1" class="eye-svg"
	 xmlns="http://www.w3.org/2000/svg" xmlns:xlink="http://www.w3.org/1999/xlink" xmlns:a="http://ns.adobe.com/AdobeSVGViewerExtensions/3.0/"
	 x="0px" y="0px" width="20px" height="13.1px" viewBox="0 0 20 13.1" enable-background="new 0 0 20 13.1" xml:space="preserve">
<defs>
</defs>
<g>
	<g>
		<path fill="#FFFFFF" d="M10,0C5.6,0,1.8,2.6,0,6.4C0,6.5,0,6.6,0,6.7c1.7,3.8,5.5,6.4,10,6.4s8.2-2.6,10-6.4C20,6.6,20,6.5,20,6.4
			C18.2,2.6,14.4,0,10,0z M10,11c-2.5,0-4.5-2-4.5-4.5C5.5,4,7.5,2,10,2c2.5,0,4.5,2,4.5,4.5S12.5,11,10,11z"/>
	</g>
	<g>
		<circle fill="#FFFFFF" cx="10" cy="6.5" r="2.9"/>
	</g>
</g>
</svg>
