<!-- Generator: Adobe Illustrator 18.1.1, SVG Export Plug-In  -->
<svg version="1.1"
	 xmlns="http://www.w3.org/2000/svg" xmlns:xlink="http://www.w3.org/1999/xlink" xmlns:a="http://ns.adobe.com/AdobeSVGViewerExtensions/3.0/"
	 x="0px" y="0px" width="33.9px" height="36px" viewBox="0 0 33.9 36" enable-background="new 0 0 33.9 36" xml:space="preserve">
<defs>
</defs>
<g>
	<g>
		<path fill="#FFFFFF" d="M21.6,22.1c0,0-0.1,0-0.1,0.1c2.1,1,5.5,2.1,8.7,2.2c0.9-1.6,1.7-3.2,2.3-5c-3,1.3-6.2,1.8-9.7,2
			C22.4,21.7,22,21.9,21.6,22.1z"/>
		<path fill="#FFFFFF" d="M24.7,20c3.1-0.5,6.5-1.7,8.4-2.9c0.5-2.1,0.7-4.2,0.7-6.4c0-0.9,0-1.8-0.1-2.8
			C31.9,12.7,28.7,16.9,24.7,20z"/>
		<path fill="#FFFFFF" d="M29.7,25.2c-3.6,0-7-0.7-10.2-1.9c-1.9-0.7-3.7-1.7-5.4-2.8c0,0,0,0,0,0C7.3,15.9,2.7,8.5,1.8,0
			C0.6,3.1,0,6.5,0,10c0,0.5,0,1,0,1.5c0,0.3,0,0.7,0.1,1c0.1,1.1,0.2,2.2,0.5,3.3c0.1,0.3,0,0.2,0.1,0.3c2,2.1,6,4.6,7,5.3
			c-1-0.2-4.9-2.1-6.4-3.1c0.9,2.8,2.2,5.6,4,7.9c1.3,0.5,3.7,1.7,4.6,2c-1.1-0.1-2.7-0.6-3.7-0.9c2.9,3.6,6.7,6.5,11.1,8.4
			c0.2,0.1,0.3,0.1,0.5,0.2c0.8-0.4,1.6-0.8,2.4-1.3c3.9-2.3,7.3-5.6,9.7-9.5C29.7,25.2,29.7,25.2,29.7,25.2z"/>
	</g>
</g>
</svg>
