<?xml version="1.0" encoding="utf-8"?>
<!-- Generator: Adobe Illustrator 18.0.0, SVG Export Plug-In . SVG Version: 6.00 Build 0)  -->
<!DOCTYPE svg PUBLIC "-//W3C//DTD SVG 1.1//EN" "http://www.w3.org/Graphics/SVG/1.1/DTD/svg11.dtd">
<svg version="1.1" id="Layer_1" xmlns="http://www.w3.org/2000/svg" xmlns:xlink="http://www.w3.org/1999/xlink" x="0px" y="0px"
	 viewBox="0 0 500 469.4" enable-background="new 0 0 500 469.4" xml:space="preserve">
<g>
	<g>
		<path fill-rule="evenodd" clip-rule="evenodd" fill="#886137" d="M40,415.3c4.1,19.1,6.7,30.9,10.1,46.9h18.5l-18.7-69.1H30.1
			l-18.7,69.1h18.4C34.1,442.7,34.9,438.8,40,415.3L40,415.3z M115.6,441.4c2.5-0.9,4.6-2.4,6.2-4.3c2.6-3.1,3.9-7.1,3.9-12.4v-13.8
			c0-5.2-1.3-9.3-3.9-12.3c-1.6-2-3.7-3.4-6.3-4.3c-2-0.7-4.2-1.1-6.8-1.1H77.7v69.1h18v-19.8h0.2l10.4,19.8h20.3L115.6,441.4
			L115.6,441.4z M107.7,428.6h-12v-17.8h12V428.6L107.7,428.6z M163.4,415.3c4.2,19.6,6.7,30.7,10.1,46.9h18.5l-18.7-69.1h-19.8
			l-18.7,69.1h18.4C157.3,443.9,158.7,437.3,163.4,415.3L163.4,415.3z M246.7,393.1h-45.6v17.8h22.8l-22.8,33.9v17.5h45.6v-17.8
			h-23.7l23.7-35.3V393.1L246.7,393.1z M304.3,393.1h-45.6v17.8h22.8l-22.8,33.9v17.5h45.6v-17.8h-23.7l23.7-35.3V393.1L304.3,393.1
			z M334.3,393.1h-18v69.1h18V393.1L334.3,393.1z M364.4,430.6l15.3,31.6h16.2v-69.1h-18v31.6l-15.3-31.6h-16.2v69.1h18V430.6
			L364.4,430.6z M426,430.6l15.3,31.6h16.2v-69.1h-18v31.6l-15.3-31.6H408v69.1h18V430.6L426,430.6z M487.6,393.1h-18v69.1h18V393.1
			z"/>
	</g>
</g>
<path fill-rule="evenodd" clip-rule="evenodd" fill="#886137" d="M18.1,16.5v336.2h466.7V16.5H18.1L18.1,16.5z M35.9,111V34.4h415.8
	c-0.2,1.2-0.5,2.4-1.1,3.7c-2.2,4.4-0.9,18.5-1.9,22.3c-0.9,3.8-1.3,10.7-5.7,6.6c-4.4-4.1,0.9,31.7,1.9,39.9
	c0.9,8.2,2.8,11-0.6,17.6c-3.5,6.6-2.2,14.1-0.9,20.8c1.3,6.6-0.9,32.1-0.3,36.5c0.4,2.8-2.8,2.3-4.9,3.3c0.7-9.6,0.7-22.9-1.9-19.6
	c-3.6,4.7-2.2-13.6-2.9-19.5c-0.7-5.8,1.3-21.9-2.9-24.2c-4.3-2.2-3.8-28.9-10.3-26.6c-6.5,2.2-6.9-0.9-8.3,8.7
	c-1.3,9.6,0.7,22.6-2,26c-0.2,0.2-0.4,0.4-0.5,0.6c-0.1-2.2-0.3-4.2-0.9-5.2c-1.4-2.9-0.4-5.5-1.4-8.6c-1-3.1-0.6-7.4-3.7-1.8
	c-3.1,5.5-2,11.2-3.1,13.1c-1,1.8-1.6-1.4-3.3-1.2c-1.7,0.2-2.1,3.3-2.9,11.9c-0.8,8.6,1.2,10-1.8,11.4c-3.1,1.4-5.9,6.9-6.1,10
	c-0.1,0.7-0.1,1.5,0,2.5l-6.1-5.7l-16.8,0c-0.2-0.7-0.5-1.4-0.9-2.1c-2.5-4.8-1.2-6.9-0.5-12.9c0.7-6,4.6-32.2,1.4-29.3
	c-3.2,3-3.5-2.1-4.2-4.8c-0.7-2.8,0.2-13.1-1.4-16.4c-1.6-3.2-0.5-6.2-1.6-9.7c-1.1-3.5-0.7-8.3-4.1-2.1c-3.5,6.2-2.3,12.7-3.5,14.7
	c-1.2,2.1-1.8-1.6-3.7-1.4c-1.8,0.2-2.3,3.7-3.2,13.4c-0.9,9.7,1.4,11.3-2.1,12.9c-3.5,1.6-6.7,7.8-6.9,11.3
	c-0.2,3.4,0.7,11.1,0.9,12.9c0.2,1.8-0.7,5.5-2.1,6c-0.9,0.3-2.1,0.3-3,7.3l-28.3-0.1c0.3-10.7,1.1-22.7,2.4-28.7
	c2-9.1-3.7-23.1-5.4-30.3c-1.7-7.1-5.2-3-8.1-6.6c-2.9-3.7-0.7-18-2.2-28.6c-1.5-10.6-2-7.1-9.1-9.6c-7.1-2.5-6.7,26.8-11.3,29.3
	c-4.7,2.5-2.5,20.2-3.2,26.6c-0.8,6.4,0.7,26.6-3.2,21.4c-3.2-4.3-2.8,16.4-1.6,26.4l-106.2-0.2v-20.1l-11.2,1.1l-9.1-2.4l-1.4,2.2
	l3.2,0.9v18.3l-19.9,0l19.9,0.6v0.3l5.3,1.7v1.8l11.8-1.1v-1.8l1.5-0.1v-0.2l106.9,3c0.1,0.3,0.1,0.6,0.2,0.8c1,2.8,1,11.1,0.2,19.1
	l-147.4-1.7l-15-22.9l-16.5,42.6l6.4,3.4l2.7,93.6l0,0.1l-6.5,2.3l-6.9-1l-7.4,2.5c0,0-2,6.4-2,9.4c0,3,5.4,5.9,5.4,5.9
	s12.8,2-4.9,5.4c-4.6,0.9-10.9,2.5-17.8,4.4c0.7-0.8,1.3-1.7,1.9-2.7c6.6-11.1,2.2-12.6,4.7-18.7c2.5-6.2,3.2-15,5.2-23.6
	c2-8.6-3.7-0.7-0.7-30c3-29.3-3.9-22.2-3.9-26.8c0-4.7,0.7,0.3,0.2-26.1c-0.5-26.3-2.7-26.1-4.2-26.6c-1.5-0.5-2.5-4.4-2.2-6.4
	c0.2-2,1.2-10.1,1-13.8c-0.2-3.7-3.7-10.3-7.4-12.1c-3.7-1.7-1.2-3.4-2.2-13.8c-1-10.3-1.5-14-3.4-14.3
	C37.3,109.1,36.6,110.4,35.9,111L35.9,111z M462,34.4h4.8v6.2c-1.6,1.1-2.4,3.8-3.6,1.5C462.4,40.8,462.4,37.9,462,34.4L462,34.4z
	 M27.5,343.2V26h447.7v317.2H27.5z M440.9,334.8H75.2c37.1-6.9,83.7-13.5,141.4-18.3C304,309.2,382.2,320.5,440.9,334.8L440.9,334.8
	z M112.4,298.4l-3.2-104.7l-3.7-5.9l2.7,1l149.9,1.3c-0.3,1.5-0.6,2.9-1,4.1c-2.7,8.6-3.7,11.8,0.2,21.7c3.9,9.8,2.2,16.2,2,24.4
	c-0.1,2-0.1,3.7,0,5.2l-145.6-0.3l145.9,4.1c0.4,2.8,1.1,5.5,2.1,9.9c2,8.4,1.5,4.7-0.7,8.4c-2.2,3.7-1.5,3.9,2.9,15
	c2.1,5.4,6.5,10,10.4,13.3l-5.6,0.5l-19.2,0.2c0.4-0.9,0.8-1.9,1-2.5c0.5-1.5-1.4-4.1-1.4-4.1l0.3-7.4l1-3.8l-2.3-5.5l-0.3-4.8
	l-0.9-2.5l-3.2-3.9l-1.5-3.1l-3.1-1.6l-5.3-1.6l-2.1-0.9l-4.1,0.6l-2.1,1.1l-3.9-0.1l-1.5,3.6l-0.7-0.5l2.2-0.4l3.2-1.1l1.8-0.7
	l2.3-0.1l2.1-0.3l3.1,0.1l3.1,1.4l2.8,2.3c0,0,1.5,2,2.1,2.5c0.6,0.5,1,1.5,1,1.5s1,3.6,1.1,4.2c0.1,0.6,0.4,3.5,0.4,3.5
	s1.2,3.3,1.6,4.2c0.4,0.9,0.5,2.7,0.5,2.7s-0.6,2.3-0.7,3.3c-0.1,1-0.1,3.7-0.1,3.7s0.9,2.7,1.1,3.3c0.2,0.6,0.5,2.6,0.5,3.6
	c0,1,0,2.7,0,2.7l0.2,0.7l-3.8,0l-0.7-22.7c0,0-1.2-12.3-11.1-11.6c-9.9,0.7-10.9,12.8-10.9,12.8l1.5,23.5l-4.2-0.1
	c0-0.2,0-0.4,0-0.6c-0.1-0.7-0.6-1.8-0.6-2.2c-0.1-0.3-0.2-3.9-0.4-5.4c-0.2-1.5-0.2-0.9-0.2-1.4c0-0.5,0-0.6,0.1-1.4
	c0.1-0.9-0.6-1.4-1.1-2.8c-0.5-1.4-0.8-0.9-0.8-0.9l-0.3,2.1c0,0-0.4,1.9-0.4,2.3c-0.1,0.4-0.1,4.1-0.1,4.1l0.3,6l-28.1-0.4
	c0,0-5.2-2.7-6.7-3.5c-1.5-0.7-0.5-0.5-1.5-1.7c-1-1.2,0-0.3-0.5-1.5c-0.5-1.2-1.7-2.2-1.7-2.2l-1.4-0.4h0.3v-35H157v35h15.2
	l0.9,1.7l0.7,3.9v3.9l-2.5,0.7l-3.4,1.5l-3.7,1l-6.9,0.2l-2.2-2.2c0,0,0.2,0,0.7-1.5c0.5-1.5,0.7-2.5,0.7-2.5l-0.5-2.2l-1.7-0.7
	l-2.5,0.7l-3.5,1l-2-0.2c0,0-2.5-1.2-3.9-2.5c-1.5-1.2,0,0-4.2-2.5c-0.3-0.2-0.5-0.3-0.7-0.4h15.7v-35h-18.5v35h1.6
	c0.2,0.2,0.4,0.4,0.4,0.4l-2.5,2.5l-0.5,5.7l2,2.2l2,4.9l-10.1-0.5l-6.9-0.3l-3.9,0.3c0,0-1.5-0.7-2.2-2.5c-0.7-1.7-0.5-2.5-0.5-2.5
	L112.4,298.4L112.4,298.4z M288.9,296c2.3-1.8,5.3-3.9,9.1-6.4c0.4-0.2,0.7-0.5,1.1-0.8h9.9v-35h-6c-0.3-1.5-0.5-2.4-0.5-2.4
	s0.1-0.3,0.2-0.8l20.8,0.6c0,0.2,0.1,0.4,0.1,0.6c0.1,0.7,0.3,1.4,0.4,2.1h-11.4v33.2c-0.3-0.1-0.6-0.1-1-0.2
	c-3-0.3-0.7,1.5-0.7,1.5v4l-3.7,4.4L288.9,296L288.9,296z M316.7,288.8h5.6c-0.8,1.1-4.3,0.9-4.3,0.9S317.5,289.3,316.7,288.8
	L316.7,288.8z M328.7,288.8h2.4v-0.5c0.4,0.9,1,1.9,1.7,3c0.3,0.5,0.6,0.9,0.9,1.3l-4.2,0.3L328.7,288.8L328.7,288.8z M358.9,292.4
	c1.5-2,2.6-3.4,2.6-3.4l0.1-0.2h2.4v-4.4c0.9-1.7,2-3.6,2.9-5.7v10.1h13.4c0,0.7-0.1,1.4-0.1,2.1c0,2.7-5.4,3-5.4,3
	s-2.2-0.5-3.5-1.2C370.3,292,361.4,292.3,358.9,292.4L358.9,292.4z M430.7,307.9c0.8-1.2,1.5-2.5,2-3.9c4-10.1,4.7-10.3,2.7-13.7
	c-1.7-2.9-2.3-0.8-1.3-5c3.3,8.3,11.4,22.6,11.4,22.6s1.4,1.8,3.4,4.4c-2.3-0.5-4.5,0-4.5,0s-10.6-2.7-11.9-3.5
	c-1.2-0.7-1.5-0.7-1.5-0.7S431.1,308.2,430.7,307.9L430.7,307.9z M134.8,198.1h18.5v35h-18.5V198.1L134.8,198.1z M157,198.1h18.5v35
	H157V198.1L157,198.1z M190,198.1h18.5v35H190V198.1L190,198.1z M190,253.8h18.5v35H190V253.8L190,253.8z M211.4,198.1h18.5v35
	h-18.5V198.1L211.4,198.1z M140.4,138.9L140.4,138.9l-0.1,0.1L140.4,138.9L140.4,138.9z M303.7,245.6c0.6-3,1.2-7.1,1.6-12.4h3.6
	v-35h-3.5c-0.2-3-0.4-5.4-0.7-7.6l22.8,0.2c0.1,5.6,0.4,5,0.4,7.4h-15.3v35h12.3c0.3,7.7-0.3,10.7-1,12.5L303.7,245.6L303.7,245.6z
	 M371.8,252.5l4.8,0.1l1.3,1.1h-6.2L371.8,252.5L371.8,252.5z M379,245.7l-7.1,0c0.1-3.1,0.2-5.7,0.4-7.4c0.2-1.8,0.4-3.6,0.5-5.2
	h5.2c0,2.5,0.2,5.5,0.6,9.3C378.8,243.7,379,244.7,379,245.7L379,245.7z M387.1,172.7c-0.2,1.6-0.9,3.6-1.8,3.9
	c-0.7,0.2-1.7,0.3-2.4,4.9l-19.9-0.2c-0.2-4.9-0.3-9.5,0.1-11.6c0.4-2.1,0.8-4.3,0.9-6.6l12.6,0.4L387.1,172.7L387.1,172.7z
	 M328.1,162.1c-0.2,3.1-0.3,7-0.4,12c-0.1,2.6-0.1,4.8-0.1,6.8l-24.7-0.3c-1.3-4-2.5-3.6-2.7-9.8c0-2.6,0-5.9,0-9.5L328.1,162.1
	L328.1,162.1z M367,224.4c-0.6-3-0.4-7.9,0-12.4V224.4L367,224.4z M367,198.9c-1.5-0.7-4-0.3-3.6-2.4c0.1-0.9,0.1-2.9,0-5.4
	l18.6,0.2c-0.1,2-0.2,4.3-0.2,6.9H367V198.9L367,198.9z M438.1,220c-1.8-8.8-2.4-22.8-1.1-26.5c0-0.1,0-0.1,0.1-0.2
	C438,200.7,439.4,213.6,438.1,220L438.1,220z M9.6,8.1h483.5v353H9.6V8.1z"/>
</svg>
